<svg xmlns="http://www.w3.org/2000/svg" width="1200" height="630" viewBox="0 0 1200 630" role="img" aria-labelledby="title desc">
  <title id="title">IOI Foundation</title>
  <desc id="desc">Protocol stewardship, governance, and research.</desc>
  <defs>
    <linearGradient id="bg" x1="0" x2="1" y1="0" y2="1">
      <stop offset="0" stop-color="#101422"/>
      <stop offset="1" stop-color="#070709"/>
    </linearGradient>
    <linearGradient id="accent" x1="0" x2="1" y1="0" y2="1">
      <stop offset="0" stop-color="#557df1"/>
      <stop offset="1" stop-color="#89c0ff"/>
    </linearGradient>
    <filter id="blur" x="-20%" y="-20%" width="140%" height="140%">
      <feGaussianBlur stdDeviation="28"/>
    </filter>
  </defs>
  <rect width="1200" height="630" fill="url(#bg)"/>
  <circle cx="180" cy="120" r="140" fill="#2740a8" opacity=".28" filter="url(#blur)"/>
  <circle cx="980" cy="520" r="190" fill="#3650c0" opacity=".12" filter="url(#blur)"/>
  <g transform="translate(120 115) scale(0.42)">
    <path fill="#3650c0" d="M295.299 434.631L295.299 654.116 485.379 544.373 295.299 434.631z"/>
    <path fill="#dbe6ff" d="M500 535.931L697.39 421.968 500 308.005 302.61 421.968 500 535.931z"/>
    <path fill="#3b5eda" d="M719.322 662.557L854.487 740.594 876.043 695.903 719.322 425.085 719.322 662.557z"/>
    <path fill="#9ac4ff" d="M514.621 544.373L704.701 654.115 704.701 434.631 514.621 544.373z"/>
    <path fill="#7aa2f0" d="M287.988 675.22L151.883 753.8 164.878 780.741 470.757 780.741 287.988 675.22z"/>
    <path fill="#6f97ea" d="M507.31 295.342L712.945 414.066 533.962 104.779 507.31 104.779 507.31 295.342z"/>
    <path fill="#edf1ff" d="M280.678 662.557L280.678 425.086 123.957 695.903 145.513 740.594 280.678 662.557z"/>
    <path fill="#5a8cec" d="M712.012 675.219L529.242 780.741 835.122 780.741 848.117 753.8 712.012 675.219z"/>
    <path fill="#f7f8f7" d="M492.689 295.343L492.689 104.779 466.038 104.779 287.055 414.066 492.689 295.343z"/>
    <path fill="#74abf0" d="M302.61 666.778L500 780.741 500 552.815 302.61 666.778z"/>
    <path fill="#bbd8f2" d="M500 552.815L500 780.741 697.39 666.778 500 552.815z"/>
  </g>
  <line x1="410" x2="1080" y1="184" y2="184" stroke="rgba(255,255,255,.1)"/>
  <text x="410" y="270" fill="#f4f4f2" font-family="'Cormorant Garamond', serif" font-size="72" font-weight="500" letter-spacing="0">
    IOI Foundation
  </text>
  <text x="410" y="338" fill="#d8dde7" font-family="'IBM Plex Sans', sans-serif" font-size="28">
    Protocol stewardship, governance, and long-horizon research
  </text>
  <text x="410" y="408" fill="#94a5c6" font-family="'IBM Plex Sans', sans-serif" font-size="19" letter-spacing="3">
    BOUNDED  ·  VERIFIABLE  ·  SOVEREIGN
  </text>
  <rect x="410" y="448" width="238" height="52" rx="26" fill="rgba(255,255,255,.03)" stroke="rgba(255,255,255,.18)"/>
  <text x="442" y="481" fill="#f4f4f2" font-family="'IBM Plex Sans', sans-serif" font-size="18" font-weight="500">
    ioi.foundation
  </text>
</svg>
