<?xml version="1.0" encoding="UTF-8" standalone="no"?>
<svg
   id="Layer_1"
   version="1.1"
   viewBox="0 0 2564.7529 209.24327"
   width="2564.7529"
   height="209.24327"
   xml:space="preserve"
   xmlns="http://www.w3.org/2000/svg"
   xmlns:svg="http://www.w3.org/2000/svg"><!-- Generator: Adobe Illustrator 29.4.0, SVG Export Plug-In . SVG Version: 2.1.0 Build 152)  --><defs
     id="defs77"><style
       id="style2">
      .st0 {
        fill: url(#linear-gradient2);
      }

      .st1 {
        fill: url(#linear-gradient10);
      }

      .st2 {
        fill: #fff;
      }

      .st3 {
        fill: url(#linear-gradient1);
      }

      .st4 {
        fill: url(#linear-gradient9);
      }

      .st5 {
        fill: url(#linear-gradient8);
      }

      .st6 {
        fill: url(#linear-gradient7);
      }

      .st7 {
        fill: url(#linear-gradient4);
      }

      .st8 {
        fill: url(#linear-gradient5);
      }

      .st9 {
        fill: url(#linear-gradient3);
      }

      .st10 {
        fill: url(#linear-gradient6);
      }

      .st11 {
        fill: url(#linear-gradient);
      }
    </style><linearGradient
       id="linear-gradient"
       x1="295.29922"
       y1="544.37323"
       x2="485.37869"
       y2="544.37323"
       gradientUnits="userSpaceOnUse"><stop
         offset="0"
         stop-color="#3650c0"
         id="stop4" /><stop
         offset="1"
         stop-color="#346acf"
         id="stop6" /></linearGradient><linearGradient
       id="linear-gradient1"
       x1="302.60983"
       y1="421.96817"
       x2="697.38995"
       y2="421.96817"
       gradientUnits="userSpaceOnUse"><stop
         offset="0"
         stop-color="#f7f8f7"
         id="stop9" /><stop
         offset="1"
         stop-color="#b0c6f4"
         id="stop11" /></linearGradient><linearGradient
       id="linear-gradient2"
       x1="797.68262"
       y1="740.59412"
       x2="797.68262"
       y2="425.08493"
       gradientUnits="userSpaceOnUse"><stop
         offset=".2011173"
         stop-color="#3b5eda"
         id="stop14" /><stop
         offset="1"
         stop-color="#2740a8"
         id="stop16" /></linearGradient><linearGradient
       id="linear-gradient3"
       x1="609.66095"
       y1="654.11517"
       x2="609.66095"
       y2="434.63083"
       gradientUnits="userSpaceOnUse"><stop
         offset="0"
         stop-color="#c8dcfd"
         id="stop19" /><stop
         offset="1"
         stop-color="#93bef8"
         id="stop21" /></linearGradient><linearGradient
       id="linear-gradient4"
       x1="223.74698"
       y1="846.12201"
       x2="392.67313"
       y2="694.02026"
       gradientUnits="userSpaceOnUse"><stop
         offset="0"
         stop-color="#83a0e0"
         id="stop24" /><stop
         offset="1"
         stop-color="#5b86de"
         id="stop26" /></linearGradient><linearGradient
       id="linear-gradient5"
       x1="518.72632"
       y1="314.34213"
       x2="622.43689"
       y2="252.02652"
       gradientUnits="userSpaceOnUse"><stop
         offset="0"
         stop-color="#759ce8"
         id="stop29" /><stop
         offset=".2891517"
         stop-color="#7198e5"
         id="stop31" /><stop
         offset=".5483354"
         stop-color="#688dde"
         id="stop33" /><stop
         offset=".7952114"
         stop-color="#587bd2"
         id="stop35" /><stop
         offset="1"
         stop-color="#4666c4"
         id="stop37" /></linearGradient><linearGradient
       id="linear-gradient6"
       x1="202.31723"
       y1="740.59436"
       x2="202.31723"
       y2="425.0856"
       gradientUnits="userSpaceOnUse"><stop
         offset="0"
         stop-color="#d3d3df"
         id="stop40" /><stop
         offset=".5313341"
         stop-color="#e8e9ed"
         id="stop42" /><stop
         offset="1"
         stop-color="#f7f8f7"
         id="stop44" /></linearGradient><linearGradient
       id="linear-gradient7"
       x1="688.67969"
       y1="780.74152"
       x2="688.67969"
       y2="675.21942"
       gradientUnits="userSpaceOnUse"><stop
         offset="0"
         stop-color="#5a8cec"
         id="stop47" /><stop
         offset="1"
         stop-color="#3b67d3"
         id="stop49" /></linearGradient><linearGradient
       id="linear-gradient8"
       x1="389.87204"
       y1="414.0657"
       x2="389.87204"
       y2="104.77927"
       gradientUnits="userSpaceOnUse"><stop
         offset="0"
         stop-color="#f7f8f7"
         id="stop52" /><stop
         offset="1"
         stop-color="#b2c8f4"
         id="stop54" /></linearGradient><linearGradient
       id="linear-gradient9"
       x1="401.3049"
       y1="780.74152"
       x2="401.3049"
       y2="552.8147"
       gradientUnits="userSpaceOnUse"><stop
         offset="0"
         stop-color="#75abf0"
         id="stop57" /><stop
         offset=".3161919"
         stop-color="#699aeb"
         id="stop59" /><stop
         offset=".9357774"
         stop-color="#4d6fe0"
         id="stop61" /><stop
         offset="1"
         stop-color="#4a6bdf"
         id="stop63" /></linearGradient><linearGradient
       id="linear-gradient10"
       x1="598.69513"
       y1="780.74139"
       x2="598.69513"
       y2="552.8147"
       gradientUnits="userSpaceOnUse"><stop
         offset="0"
         stop-color="#bbd8f2"
         id="stop66" /><stop
         offset=".1644974"
         stop-color="#b3d3f1"
         id="stop68" /><stop
         offset=".4133375"
         stop-color="#9ec6ef"
         id="stop70" /><stop
         offset=".7138602"
         stop-color="#7cb0ed"
         id="stop72" /><stop
         offset="1"
         stop-color="#5698ea"
         id="stop74" /></linearGradient></defs><g
     id="g103"
     transform="matrix(0.30954877,0,0,0.30954877,-38.370644,-32.434294)"><polygon
       class="st11"
       points="485.37869,544.37308 295.29922,434.6309 295.29922,654.11552 "
       id="polygon79"
       style="fill:url(#linear-gradient)" /><polygon
       class="st3"
       points="499.99985,308.00492 302.60983,421.96842 500.00003,535.93143 697.38998,421.96836 "
       id="polygon81"
       style="fill:url(#linear-gradient1)" /><polygon
       class="st0"
       points="876.0433,695.9025 719.32187,425.08494 719.32187,662.5568 854.48666,740.59409 "
       id="polygon83"
       style="fill:url(#linear-gradient2)" /><polygon
       class="st9"
       points="704.70053,434.63084 514.62137,544.37308 704.70053,654.11515 "
       id="polygon85"
       style="fill:url(#linear-gradient3)" /><polygon
       class="st7"
       points="164.87808,780.74149 470.75729,780.74149 287.98837,675.21964 151.88309,753.80002 "
       id="polygon87"
       style="fill:url(#linear-gradient4)" /><polygon
       class="st8"
       points="533.96182,104.77927 507.31009,104.77927 507.31009,295.34232 712.94528,414.06602 "
       id="polygon89"
       style="fill:url(#linear-gradient5)" /><polygon
       class="st10"
       points="123.9567,695.9025 145.51346,740.59434 280.67776,662.55717 280.67776,425.08561 "
       id="polygon91"
       style="fill:url(#linear-gradient6)" /><polygon
       class="st6"
       points="835.12192,780.74149 848.11703,753.79978 712.01157,675.2194 529.2424,780.74149 "
       id="polygon93"
       style="fill:url(#linear-gradient7)" /><polygon
       class="st5"
       points="466.03824,104.77927 287.05496,414.06571 492.68912,295.34263 492.68912,104.77927 "
       id="polygon95"
       style="fill:url(#linear-gradient8)" /><g
       id="g101"><polygon
         class="st4"
         points="500.00003,780.74137 500.00003,552.81467 302.60977,666.77799 499.99985,780.74149 "
         id="polygon97"
         style="fill:url(#linear-gradient9)" /><polygon
         class="st1"
         points="697.39023,666.77781 500.00003,552.81467 500.00003,780.74137 "
         id="polygon99"
         style="fill:url(#linear-gradient10)" /></g></g><g id="ioi-foundation-text" transform="translate(290, 179) scale(0.1720542430, -0.1720542430)" fill="#ffffff">
    <path d="M32 700H171V0H32Z" transform="translate(0, 0)"/>
    <path d="M772 700Q844 700 908.0 672.5Q972 645 1019.5 597.5Q1067 550 1094.5 486.0Q1122 422 1122 350Q1122 278 1094.5 214.0Q1067 150 1019.5 102.5Q972 55 908.0 27.5Q844 0 772 0H382Q310 0 246.0 27.5Q182 55 134.5 102.5Q87 150 59.5 214.0Q32 278 32 350Q32 422 59.5 486.0Q87 550 134.5 597.5Q182 645 246.0 672.5Q310 700 382 700ZM983 350Q983 394 966.5 432.0Q950 470 921.5 498.5Q893 527 855.0 543.5Q817 560 773 560H381Q338 560 299.5 543.5Q261 527 232.5 498.5Q204 470 187.5 432.0Q171 394 171 350Q171 307 187.5 268.5Q204 230 232.5 201.5Q261 173 299.5 156.5Q338 140 381 140H773Q817 140 855.0 156.5Q893 173 921.5 201.5Q950 230 966.5 268.5Q983 307 983 350Z" transform="translate(284, 0)"/>
    <path d="M32 700H171V0H32Z" transform="translate(1518, 0)"/>
    <path d="M980 268Q975 237 959.0 211.5Q943 186 920.0 167.5Q897 149 868.5 138.5Q840 128 809 128H171V0H32V525Q32 562 45.5 594.0Q59 626 82.5 649.5Q106 673 138.0 686.5Q170 700 207 700H809Q840 700 868.5 690.0Q897 680 920.0 661.5Q943 643 958.5 617.5Q974 592 980 561H207Q199 560 193.0 558.0Q187 556 182 550Q176 545 174.0 539.0Q172 533 171 525V268Z" transform="translate(2425, 0)"/>
    <path d="M772 700Q844 700 908.0 672.5Q972 645 1019.5 597.5Q1067 550 1094.5 486.0Q1122 422 1122 350Q1122 278 1094.5 214.0Q1067 150 1019.5 102.5Q972 55 908.0 27.5Q844 0 772 0H382Q310 0 246.0 27.5Q182 55 134.5 102.5Q87 150 59.5 214.0Q32 278 32 350Q32 422 59.5 486.0Q87 550 134.5 597.5Q182 645 246.0 672.5Q310 700 382 700ZM983 350Q983 394 966.5 432.0Q950 470 921.5 498.5Q893 527 855.0 543.5Q817 560 773 560H381Q338 560 299.5 543.5Q261 527 232.5 498.5Q204 470 187.5 432.0Q171 394 171 350Q171 307 187.5 268.5Q204 230 232.5 201.5Q261 173 299.5 156.5Q338 140 381 140H773Q817 140 855.0 156.5Q893 173 921.5 201.5Q950 230 966.5 268.5Q983 307 983 350Z" transform="translate(3518, 0)"/>
    <path d="M983 350V700H1122V350Q1122 278 1094.5 214.0Q1067 150 1019.5 102.5Q972 55 908.0 27.5Q844 0 772 0H382Q310 0 246.0 27.5Q182 55 134.5 102.5Q87 150 59.5 214.0Q32 278 32 350V700H171V350Q171 307 187.5 268.5Q204 230 232.5 201.5Q261 173 299.5 156.5Q338 140 381 140H773Q817 140 855.0 156.5Q893 173 921.5 201.5Q950 230 966.5 268.5Q983 307 983 350Z" transform="translate(4752, 0)"/>
    <path d="M984 700V70Q984 65 983.5 61.0Q983 57 982 52Q976 29 957.0 14.5Q938 0 914 0Q895 0 880 9L844 28L171 511V0H32V630Q32 659 52.5 679.5Q73 700 102 700Q120 700 136 691L171 671L844 189V700Z" transform="translate(5986, 0)"/>
    <path d="M706 700Q778 700 842.0 672.5Q906 645 953.5 597.5Q1001 550 1028.5 486.0Q1056 422 1056 350Q1056 278 1028.5 214.0Q1001 150 953.5 102.5Q906 55 842.0 27.5Q778 0 706 0H32V700ZM917 350Q917 394 900.5 432.0Q884 470 855.5 498.5Q827 527 789.0 543.5Q751 560 707 560H170V140H707Q751 140 789.0 156.5Q827 173 855.5 201.5Q884 230 900.5 268.5Q917 307 917 350Z" transform="translate(7082, 0)"/>
    <path d="M772 700Q844 700 908.0 672.5Q972 645 1019.5 597.5Q1067 550 1094.5 486.0Q1122 422 1122 350V0H983V207H171V0H32V350Q32 422 59.5 486.0Q87 550 134.5 597.5Q182 645 246.0 672.5Q310 700 382 700ZM983 346V350Q983 394 966.5 432.0Q950 470 921.5 498.5Q893 527 855.0 543.5Q817 560 773 560H381Q338 560 299.5 543.5Q261 527 232.5 498.5Q204 470 187.5 432.0Q171 394 171 350V346Z" transform="translate(8250, 0)"/>
    <path d="M864 700Q895 700 922.5 689.5Q950 679 972.5 660.0Q995 641 1011.0 616.0Q1027 591 1033 561H602V0H463V561H32L43 589Q52 613 67.5 633.0Q83 653 104.0 667.5Q125 682 149.5 690.5Q174 699 199 700Z" transform="translate(9484, 0)"/>
    <path d="M32 700H171V0H32Z" transform="translate(10629, 0)"/>
    <path d="M772 700Q844 700 908.0 672.5Q972 645 1019.5 597.5Q1067 550 1094.5 486.0Q1122 422 1122 350Q1122 278 1094.5 214.0Q1067 150 1019.5 102.5Q972 55 908.0 27.5Q844 0 772 0H382Q310 0 246.0 27.5Q182 55 134.5 102.5Q87 150 59.5 214.0Q32 278 32 350Q32 422 59.5 486.0Q87 550 134.5 597.5Q182 645 246.0 672.5Q310 700 382 700ZM983 350Q983 394 966.5 432.0Q950 470 921.5 498.5Q893 527 855.0 543.5Q817 560 773 560H381Q338 560 299.5 543.5Q261 527 232.5 498.5Q204 470 187.5 432.0Q171 394 171 350Q171 307 187.5 268.5Q204 230 232.5 201.5Q261 173 299.5 156.5Q338 140 381 140H773Q817 140 855.0 156.5Q893 173 921.5 201.5Q950 230 966.5 268.5Q983 307 983 350Z" transform="translate(10913, 0)"/>
    <path d="M984 700V70Q984 65 983.5 61.0Q983 57 982 52Q976 29 957.0 14.5Q938 0 914 0Q895 0 880 9L844 28L171 511V0H32V630Q32 659 52.5 679.5Q73 700 102 700Q120 700 136 691L171 671L844 189V700Z" transform="translate(12147, 0)"/>
  </g>
</svg>
